<?xml version="1.0" encoding="utf-8"?>
<!-- Generator: Adobe Illustrator 16.0.0, SVG Export Plug-In . SVG Version: 6.00 Build 0)  -->
<!DOCTYPE svg PUBLIC "-//W3C//DTD SVG 1.1//EN" "http://www.w3.org/Graphics/SVG/1.1/DTD/svg11.dtd">
<svg version="1.1" id="Layer_1" xmlns="http://www.w3.org/2000/svg" xmlns:xlink="http://www.w3.org/1999/xlink" x="0px" y="0px"
	 width="300px" height="300px" viewBox="0 0 300 300" enable-background="new 0 0 300 300" xml:space="preserve">
<g>
	<path fill="#354243" d="M240.188,103.377c-24.864,0-45.094-20.08-45.094-44.761c0-24.679,20.229-44.756,45.094-44.756
		c24.865,0,45.094,20.077,45.094,44.756C285.281,83.297,265.053,103.377,240.188,103.377z"/>
	<path fill="#354243" d="M182.346,286.354c-12.909,0-23.737-2.811-32.179-8.352c-1.647-1.085-3.202-2.269-4.657-3.55
		c-2.223,1.428-4.541,2.719-6.956,3.872c-11.149,5.329-23.155,8.029-35.683,8.029c-12.684,0-24.635-2.427-35.527-7.21
		c-10.934-4.805-20.515-11.704-28.466-20.503c-7.776-8.601-13.892-18.886-18.167-30.563c-4.202-11.458-6.333-24.046-6.333-37.412
		c0-12.844,1.936-25.053,5.759-36.29c3.913-11.51,9.532-21.698,16.698-30.278c7.41-8.863,16.347-15.889,26.57-20.883
		c10.461-5.103,21.618-7.684,33.995-7.684c8.385,0,17.6,1.293,23.6,3.856V61.619C121,50.729,130.848,43,141.914,43h52.617
		C205.497,43,214,50.545,214,61.619V200.87c8,2.812,16,10.163,16,18.597v44.307c0,9.674-8.377,17.885-17.908,19.525
		c-5.699,0.98-11.553,1.732-15.967,2.237C191.294,286.079,186.182,286.354,182.346,286.354z"/>
	<path fill="#FFFFFF" d="M206.668,217.198c-4.137-0.316-6.59-1.271-8.01-2.761c-0.977-1.027-1.658-3.39-1.658-8.819V61.619
		c0-1.254-1.213-3.619-2.469-3.619h-52.617c-1.253,0-2.914,2.365-2.914,3.619v70.506c-5-5.075-8.596-9.236-14.461-12.411
		c-8.152-4.409-17.065-6.645-26.812-6.645c-9.712,0-18.636,1.987-26.672,5.907c-8.009,3.909-14.975,9.419-20.783,16.369
		c-5.786,6.925-10.33,15.229-13.541,24.68c-3.204,9.42-4.821,19.728-4.821,30.641c0,11.301,1.776,21.861,5.267,31.381
		c3.498,9.554,8.452,17.908,14.714,24.835c6.281,6.949,13.855,12.399,22.512,16.204c8.652,3.801,18.233,5.73,28.47,5.73
		c9.889,0,19.351-2.127,28.119-6.316c7.253-3.467,13.344-8.662,18.164-15.481c3.073,14.462,14.239,21.798,33.191,21.798
		c3.186,0,6.902-0.239,11.059-0.709c4.086-0.465,8.109-1.171,13.48-2.095c1.088-0.188,1.115-1.131,1.115-2.239v-44.307
		C208,218.276,207.855,217.289,206.668,217.198z"/>
	<path fill="#51C7E5" d="M267.742,58.616c0,15.032-12.334,27.218-27.555,27.218c-15.222,0-27.555-12.186-27.555-27.218
		c0-15.034,12.333-27.217,27.555-27.217C255.408,31.399,267.742,43.582,267.742,58.616z"/>
</g>
<g>
</g>
<g>
</g>
<g>
</g>
<g>
</g>
<g>
</g>
<g>
</g>
</svg>
