<?xml version="1.0" encoding="utf-8"?>
<!-- Generator: Adobe Illustrator 16.0.0, SVG Export Plug-In . SVG Version: 6.00 Build 0)  -->
<!DOCTYPE svg PUBLIC "-//W3C//DTD SVG 1.1//EN" "http://www.w3.org/Graphics/SVG/1.1/DTD/svg11.dtd">
<svg version="1.1" id="Layer_1" xmlns="http://www.w3.org/2000/svg" xmlns:xlink="http://www.w3.org/1999/xlink" x="0px" y="0px"
	 width="400.845px" height="109.939px" viewBox="0 0 400.845 109.939" enable-background="new 0 0 400.845 109.939"
	 xml:space="preserve">
<path fill="#60C8DC" d="M13.172,0H7.818C6.591,0,5.597,0.994,5.597,2.221v5.172c0,1.223,0.994,2.221,2.222,2.221h5.354
	c1.225,0,2.221-0.998,2.221-2.221V2.221C15.393,0.994,14.396,0,13.172,0z"/>
<path fill="#60C8DC" d="M12.806,12.043H8.119c-1.226,0-2.219,0.998-2.219,2.223V47.48c0,0.936-0.184,1.453-0.354,1.623
	c-0.174,0.176-0.43,0.354-1.015,0.354c-0.297,0-0.635-0.008-1.016-0.025c-0.306-0.018-0.582-0.051-0.813-0.104
	c-0.657-0.148-1.347,0.014-1.87,0.438C0.304,50.186,0,50.824,0,51.496v3.834c0,1.029,0.709,1.924,1.717,2.16
	c0.602,0.141,1.178,0.24,1.729,0.295c0.484,0.045,1.051,0.068,1.696,0.068c2.973,0,5.379-0.863,7.158-2.561
	c1.81-1.729,2.725-4.338,2.725-7.754V14.266C15.024,13.041,14.031,12.043,12.806,12.043z"/>
<path fill="#60C8DC" d="M51.495,16.873c-1.653-1.678-3.64-3.023-5.898-4.008c-2.28-0.986-4.775-1.49-7.424-1.49
	c-2.687,0-5.204,0.504-7.485,1.49c-2.265,0.986-4.253,2.348-5.908,4.049c-1.657,1.701-2.958,3.697-3.869,5.939
	c-0.917,2.248-1.385,4.656-1.385,7.291c0,2.518,0.468,4.918,1.388,7.143c0.914,2.221,2.218,4.201,3.876,5.883
	c1.654,1.676,3.626,3.021,5.862,4.002c2.26,0.992,4.751,1.496,7.401,1.496c2.642,0,5.146-0.502,7.445-1.488
	c2.288-0.986,4.289-2.348,5.948-4.051c1.648-1.695,2.957-3.688,3.893-5.924c0.943-2.252,1.418-4.668,1.418-7.307
	c0-2.51-0.463-4.912-1.382-7.143C54.455,20.533,53.151,18.555,51.495,16.873z M38.173,40.027c-1.354,0-2.562-0.252-3.699-0.77
	c-1.165-0.535-2.147-1.229-2.989-2.121c-0.836-0.887-1.505-1.949-1.984-3.16c-0.482-1.207-0.727-2.541-0.727-4.078
	c0-1.381,0.239-2.701,0.705-3.918c0.465-1.213,1.11-2.281,1.915-3.164c0.793-0.879,1.74-1.562,2.896-2.092
	c1.122-0.512,2.388-0.771,3.763-0.771c1.35,0,2.56,0.252,3.696,0.771c1.156,0.529,2.171,1.256,3.021,2.15
	c0.857,0.904,1.532,1.98,2.015,3.191c0.48,1.213,0.727,2.543,0.727,4.078c0,1.377-0.234,2.68-0.702,3.877
	c-0.461,1.189-1.113,2.246-1.932,3.131c-0.81,0.873-1.798,1.58-2.944,2.105C40.813,39.77,39.548,40.027,38.173,40.027z"/>
<path fill="#60C8DC" d="M91.339,12.043h-5.048c-0.902,0-1.715,0.549-2.054,1.385l-8.585,21.041L67.118,13.43
	c-0.338-0.838-1.153-1.387-2.058-1.387h-5.17c-0.748,0-1.444,0.375-1.856,1c-0.407,0.625-0.479,1.412-0.186,2.098l13.628,31.697
	c0.351,0.814,1.153,1.342,2.041,1.342h4.136c0.886,0,1.687-0.525,2.037-1.336L93.38,15.145c0.295-0.686,0.228-1.477-0.184-2.1
	C92.786,12.418,92.089,12.043,91.339,12.043z"/>
<path fill="#60C8DC" d="M124.373,17.037c-1.457-1.738-3.263-3.131-5.371-4.139c-2.117-1.012-4.524-1.523-7.158-1.523
	c-2.505,0-4.856,0.498-6.982,1.484c-2.108,0.969-3.956,2.322-5.494,4.023c-1.523,1.688-2.725,3.689-3.565,5.943
	c-0.841,2.244-1.266,4.666-1.266,7.193c0,2.719,0.473,5.254,1.411,7.535c0.936,2.289,2.235,4.281,3.85,5.916
	c1.623,1.648,3.549,2.939,5.719,3.844c2.169,0.896,4.502,1.354,6.935,1.354c3.354,0,6.24-0.629,8.584-1.871
	c2.25-1.191,4.282-2.801,6.034-4.779c0.812-0.912,0.729-2.311-0.179-3.125l-2.919-2.615c-0.885-0.793-2.246-0.752-3.075,0.107
	c-1.126,1.16-2.38,2.1-3.723,2.797c-1.231,0.643-2.781,0.967-4.601,0.967c-1.108,0-2.183-0.188-3.184-0.559
	c-0.995-0.369-1.905-0.916-2.712-1.625c-0.791-0.695-1.455-1.574-1.973-2.613c-0.193-0.381-0.36-0.791-0.499-1.225h22.238
	c1.134,0,2.086-0.854,2.206-1.984c0.05-0.455,0.076-0.848,0.076-1.176v-0.701c0-2.525-0.364-4.941-1.082-7.189
	C126.906,20.783,125.808,18.752,124.373,17.037z M104.649,24.822c0.479-1.061,1.093-1.988,1.814-2.756
	c0.692-0.734,1.474-1.291,2.388-1.703c1.941-0.863,4.372-0.74,6.025,0.041c0.921,0.434,1.676,1.006,2.304,1.736
	c0.664,0.771,1.199,1.682,1.591,2.703c0.126,0.332,0.238,0.668,0.336,1.01h-14.866C104.362,25.5,104.493,25.156,104.649,24.822z"/>
<path fill="#60C8DC" d="M170.731,11.375c-1.586,0-3.052,0.193-4.367,0.576c-1.319,0.387-2.52,0.922-3.58,1.598
	c-1.055,0.672-2.011,1.471-2.842,2.373c-0.04,0.041-0.076,0.082-0.112,0.119c-0.759-0.908-1.646-1.73-2.65-2.455
	c-2.039-1.465-4.604-2.211-7.619-2.211c-1.562,0-2.976,0.201-4.21,0.594c-1.216,0.391-2.326,0.924-3.3,1.58
	c-0.157,0.105-0.313,0.217-0.463,0.33c-0.185-1.047-1.095-1.836-2.188-1.836h-4.685c-1.225,0-2.218,0.998-2.218,2.223v31.447
	c0,1.23,0.993,2.223,2.218,2.223h4.685c1.228,0,2.221-0.992,2.221-2.223V27.811c0-1.191,0.18-2.266,0.528-3.197
	c0.349-0.934,0.83-1.752,1.436-2.43c0.591-0.666,1.257-1.164,2.036-1.52c0.767-0.355,1.598-0.527,2.538-0.527
	c1.862,0,3.258,0.557,4.263,1.699c1.069,1.219,1.609,3.043,1.609,5.426v18.451c0,1.23,0.996,2.223,2.221,2.223h4.622
	c1.229,0,2.222-0.992,2.222-2.223V27.627c0-1.258,0.187-2.377,0.552-3.33c0.36-0.934,0.836-1.715,1.424-2.33
	c0.572-0.605,1.224-1.047,1.986-1.355c0.793-0.32,1.616-0.475,2.516-0.475c1.904,0,3.317,0.557,4.325,1.705
	c1.067,1.213,1.607,3.078,1.607,5.545v18.326c0,1.23,0.993,2.223,2.221,2.223h4.685c1.225,0,2.221-0.992,2.221-2.223V26.25
	c0-4.49-1.242-8.119-3.689-10.781C178.446,12.754,175.008,11.375,170.731,11.375z"/>
<path fill="#FFFFFF" d="M32.383,68.453c-1.624-1.6-3.494-2.836-5.56-3.672c-3.678-1.486-7.789-1.607-11.006-0.57
	c-1.376,0.441-2.646,1.035-3.777,1.768c-0.48,0.309-0.939,0.643-1.381,0.998v-0.562c0-1.225-0.998-2.223-2.221-2.223H3.754
	c-1.228,0-2.221,0.998-2.221,2.223V107.6c0,1.225,0.993,2.221,2.221,2.221h4.685c1.223,0,2.221-0.996,2.221-2.221V97.473
	c0.431,0.334,0.882,0.646,1.345,0.938c1.134,0.711,2.424,1.285,3.822,1.701c1.421,0.428,2.985,0.645,4.655,0.645
	c2.188,0,4.348-0.438,6.418-1.299c2.065-0.857,3.924-2.102,5.523-3.701c1.598-1.598,2.894-3.564,3.854-5.85
	c0.966-2.295,1.452-4.898,1.452-7.859c0-2.879-0.486-5.494-1.455-7.77C35.314,72.014,34.003,70.051,32.383,68.453z M27.752,77.871
	c0.485,1.234,0.73,2.662,0.73,4.359c0,1.617-0.245,3.066-0.73,4.301c-0.479,1.221-1.118,2.254-1.902,3.072
	c-0.786,0.818-1.689,1.42-2.759,1.852c-2.145,0.863-4.595,0.92-6.811-0.039c-1.099-0.473-2.099-1.152-2.973-2.01
	c-0.859-0.842-1.552-1.885-2.065-3.105c-0.508-1.219-0.767-2.609-0.767-4.254c0-1.475,0.256-2.83,0.764-4.023
	c0.517-1.215,1.216-2.266,2.081-3.135c0.876-0.871,1.874-1.553,2.965-2.023c1.087-0.475,2.18-0.701,3.345-0.701
	c1.192,0,2.333,0.225,3.389,0.674c1.07,0.455,1.987,1.088,2.797,1.93C26.623,75.609,27.276,76.652,27.752,77.871z"/>
<path fill="#FFFFFF" d="M61.727,63.646l-0.468-0.006c-1.563,0-3.063,0.221-4.456,0.652c-1.525,0.48-2.943,1.189-4.224,2.115
	c-0.533,0.387-1.042,0.803-1.525,1.252v-1.246c0-1.225-0.997-2.223-2.222-2.223h-4.685c-1.229,0-2.221,0.998-2.221,2.223v31.447
	c0,1.23,0.992,2.223,2.221,2.223h4.685c1.225,0,2.222-0.992,2.222-2.223V85.332c0-2.084,0.28-3.93,0.842-5.484
	c0.54-1.512,1.282-2.775,2.209-3.768c0.92-0.984,1.96-1.699,3.186-2.188c1.251-0.502,2.601-0.758,4.012-0.758h0.365
	c1.228,0,2.221-0.992,2.221-2.217v-5.051C63.888,64.666,62.93,63.68,61.727,63.646z"/>
<path fill="#FFFFFF" d="M96.585,69.021c-1.657-1.676-3.642-3.023-5.9-4.006c-2.281-0.988-4.778-1.492-7.422-1.492
	c-2.687,0-5.205,0.504-7.488,1.492c-2.267,0.984-4.25,2.346-5.905,4.047c-1.657,1.703-2.958,3.699-3.873,5.941
	c-0.914,2.246-1.381,4.656-1.381,7.289c0,2.518,0.467,4.92,1.386,7.143c0.915,2.221,2.221,4.203,3.875,5.883
	c1.658,1.678,3.628,3.021,5.862,4.002c2.262,0.992,4.752,1.496,7.403,1.496c2.641,0,5.148-0.502,7.447-1.488
	c2.288-0.986,4.288-2.348,5.946-4.051c1.647-1.695,2.958-3.688,3.895-5.922c0.94-2.252,1.419-4.67,1.419-7.309
	c0-2.51-0.468-4.912-1.386-7.141C99.544,72.682,98.242,70.703,96.585,69.021z M83.263,92.176c-1.356,0-2.566-0.252-3.698-0.77
	c-1.17-0.535-2.146-1.229-2.992-2.121c-0.836-0.887-1.505-1.949-1.984-3.158s-0.726-2.543-0.726-4.08
	c0-1.381,0.238-2.699,0.706-3.918c0.467-1.213,1.107-2.279,1.915-3.164c0.793-0.879,1.739-1.561,2.896-2.092
	c1.123-0.512,2.388-0.771,3.762-0.771c1.349,0,2.562,0.252,3.699,0.771c1.152,0.531,2.168,1.256,3.02,2.15
	c0.855,0.906,1.533,1.98,2.017,3.191c0.479,1.213,0.725,2.543,0.725,4.078c0,1.379-0.236,2.68-0.701,3.879
	c-0.467,1.188-1.115,2.244-1.935,3.131c-0.808,0.871-1.798,1.58-2.942,2.104C85.902,91.918,84.639,92.176,83.263,92.176z"/>
<path fill="#FFFFFF" d="M138.01,64.191h-4.68c-1.228,0-2.221,0.998-2.221,2.223v0.312c-0.502-0.371-1.031-0.711-1.579-1.023
	c-1.15-0.658-2.445-1.188-3.852-1.582c-3.275-0.912-7.316-0.807-10.915,0.586c-2.044,0.789-3.878,1.932-5.456,3.393
	c-1.593,1.479-2.88,3.281-3.825,5.363c-0.961,2.109-1.447,4.504-1.447,7.25c0,2.582,0.486,4.949,1.452,7.041
	c0.948,2.059,2.234,3.85,3.82,5.326c1.58,1.461,3.403,2.602,5.418,3.385c2.011,0.789,4.136,1.189,6.312,1.189
	c3.307,0,6.168-0.775,8.518-2.309c0.523-0.344,1.029-0.703,1.517-1.082c-0.249,2.17-1.004,3.809-2.281,4.971
	c-1.659,1.516-3.896,2.25-6.839,2.25c-2.01,0-3.913-0.305-5.661-0.912c-1.774-0.613-3.508-1.521-5.156-2.691
	c-0.508-0.359-1.146-0.496-1.757-0.359c-0.608,0.131-1.135,0.512-1.449,1.051l-2.131,3.65c-0.582,1.002-0.301,2.285,0.655,2.945
	c2.282,1.58,4.764,2.785,7.371,3.58c2.593,0.791,5.349,1.191,8.188,1.191c2.746,0,5.277-0.387,7.534-1.15
	c2.341-0.801,4.368-2.041,6.022-3.693c1.517-1.521,2.69-3.375,3.491-5.51c0.778-2.084,1.175-4.506,1.175-7.195V66.414
	C140.233,65.189,139.237,64.191,138.01,64.191z M118.609,88.441c-1.068-0.426-1.976-0.998-2.773-1.748
	c-0.771-0.723-1.398-1.617-1.862-2.66c-0.458-1.025-0.69-2.186-0.69-3.566c0-1.309,0.223-2.48,0.664-3.492
	c0.449-1.018,1.039-1.857,1.812-2.57c0.781-0.715,1.709-1.283,2.761-1.689c1.056-0.408,2.211-0.613,3.431-0.613
	c1.232,0,2.427,0.211,3.551,0.623c1.123,0.414,2.131,1.004,2.992,1.756c0.851,0.732,1.54,1.631,2.059,2.66
	c0.494,0.994,0.737,2.104,0.737,3.508c0,1.244-0.243,2.332-0.737,3.326c-0.527,1.051-1.206,1.938-2.075,2.711
	c-0.862,0.764-1.863,1.357-2.976,1.766C123.32,89.256,120.765,89.307,118.609,88.441z"/>
<path fill="#FFFFFF" d="M166.056,63.646l-0.465-0.006c-1.567,0-3.064,0.221-4.459,0.652c-1.523,0.48-2.944,1.189-4.225,2.115
	c-0.53,0.387-1.043,0.803-1.528,1.252v-1.246c0-1.225-0.992-2.223-2.221-2.223h-4.679c-1.23,0-2.224,0.998-2.224,2.223v31.447
	c0,1.23,0.993,2.223,2.224,2.223h4.679c1.229,0,2.221-0.992,2.221-2.223V85.332c0-2.084,0.285-3.93,0.846-5.484
	c0.542-1.512,1.285-2.775,2.209-3.768c0.919-0.984,1.961-1.699,3.188-2.188c1.248-0.502,2.598-0.758,4.006-0.758h0.368
	c1.225,0,2.221-0.992,2.221-2.217v-5.051C168.217,64.666,167.257,63.68,166.056,63.646z"/>
<path fill="#FFFFFF" d="M184.978,63.709c-2.5,0-4.766,0.273-6.738,0.818c-1.898,0.527-3.8,1.234-5.646,2.107
	c-1.041,0.488-1.535,1.688-1.142,2.764l1.397,3.857c0.215,0.586,0.666,1.057,1.244,1.293c0.572,0.24,1.228,0.223,1.793-0.045
	c1.335-0.627,2.713-1.135,4.093-1.502c1.327-0.354,2.845-0.535,4.511-0.535c2.388,0,4.207,0.537,5.403,1.588
	c0.76,0.676,1.262,1.578,1.505,2.748c-0.53-0.107-1.062-0.205-1.593-0.291c-1.59-0.262-3.481-0.396-5.618-0.396
	c-2.173,0-4.203,0.252-6.029,0.748c-1.896,0.516-3.565,1.285-4.963,2.279c-1.489,1.064-2.655,2.406-3.459,3.998
	c-0.808,1.586-1.214,3.43-1.214,5.598c0,1.996,0.43,3.789,1.274,5.328c0.817,1.486,1.911,2.758,3.253,3.773
	c1.311,0.996,2.828,1.744,4.503,2.221c1.617,0.463,3.276,0.695,4.927,0.695c3.141,0,5.841-0.645,8.023-1.912
	c0.378-0.221,0.74-0.449,1.094-0.684c0.146,1.088,1.074,1.924,2.202,1.924h4.622c1.225,0,2.221-0.992,2.221-2.223V78.639
	c0-4.562-1.325-8.201-3.938-10.814C193.97,65.092,190.024,63.709,184.978,63.709z M191.637,86.285c0,0.895-0.184,1.672-0.559,2.381
	c-0.403,0.76-0.943,1.4-1.657,1.961c-0.735,0.578-1.616,1.035-2.612,1.359c-1.727,0.553-3.939,0.699-5.745,0.166
	c-0.707-0.211-1.33-0.512-1.853-0.885c-0.459-0.332-0.807-0.732-1.072-1.221c-0.251-0.461-0.371-0.979-0.371-1.699
	c0-1.184,0.454-2.039,1.472-2.773c1.203-0.863,3.04-1.307,5.464-1.307c1.791,0,3.386,0.133,4.739,0.387
	c0.781,0.148,1.517,0.301,2.194,0.459V86.285z"/>
<path fill="#FFFFFF" d="M244.35,63.523c-1.584,0-3.05,0.193-4.367,0.576c-1.313,0.387-2.518,0.922-3.58,1.598
	c-1.053,0.672-2.01,1.471-2.844,2.375c-0.035,0.039-0.071,0.08-0.106,0.117c-0.763-0.908-1.646-1.73-2.651-2.453
	c-2.04-1.467-4.606-2.213-7.625-2.213c-1.559,0-2.975,0.201-4.207,0.594c-1.215,0.391-2.323,0.924-3.297,1.58
	c-0.161,0.105-0.313,0.217-0.464,0.33c-0.184-1.047-1.093-1.836-2.188-1.836h-4.685c-1.228,0-2.222,0.998-2.222,2.223v31.447
	c0,1.23,0.994,2.223,2.222,2.223h4.685c1.226,0,2.221-0.992,2.221-2.223v-17.9c0-1.191,0.179-2.268,0.528-3.197
	c0.346-0.936,0.83-1.754,1.435-2.432c0.593-0.666,1.259-1.162,2.037-1.52c0.766-0.355,1.596-0.527,2.538-0.527
	c1.863,0,3.258,0.557,4.262,1.701c1.07,1.217,1.609,3.041,1.609,5.424v18.451c0,1.23,0.994,2.223,2.221,2.223h4.624
	c1.225,0,2.221-0.992,2.221-2.223V79.775c0-1.258,0.185-2.377,0.551-3.33c0.356-0.934,0.836-1.715,1.421-2.33
	c0.576-0.604,1.228-1.047,1.99-1.354c0.792-0.32,1.615-0.477,2.517-0.477c1.903,0,3.316,0.557,4.321,1.705
	c1.067,1.213,1.61,3.078,1.61,5.545v18.326c0,1.23,0.993,2.223,2.221,2.223h4.685c1.225,0,2.218-0.992,2.218-2.223V78.398
	c0-4.49-1.238-8.119-3.687-10.781C252.065,64.902,248.629,63.523,244.35,63.523z"/>
<path fill="#FFFFFF" d="M278.05,63.709c-2.497,0-4.764,0.273-6.733,0.818c-1.901,0.527-3.802,1.234-5.65,2.107
	c-1.036,0.488-1.533,1.688-1.142,2.764l1.402,3.857c0.215,0.586,0.661,1.057,1.241,1.293c0.576,0.24,1.23,0.223,1.794-0.045
	c1.335-0.627,2.715-1.135,4.095-1.502c1.328-0.354,2.844-0.535,4.506-0.535c2.393,0,4.21,0.537,5.407,1.588
	c0.758,0.676,1.257,1.578,1.503,2.748c-0.529-0.107-1.06-0.205-1.59-0.291c-1.593-0.262-3.481-0.396-5.621-0.396
	c-2.176,0-4.203,0.252-6.029,0.748c-1.894,0.516-3.562,1.285-4.964,2.279c-1.486,1.064-2.653,2.406-3.458,3.998
	c-0.808,1.586-1.216,3.43-1.216,5.598c0,1.996,0.433,3.789,1.278,5.328c0.818,1.486,1.912,2.758,3.252,3.773
	c1.313,0.996,2.827,1.744,4.506,2.221c1.617,0.463,3.276,0.695,4.926,0.695c3.139,0,5.836-0.645,8.019-1.912
	c0.38-0.221,0.745-0.449,1.099-0.684c0.144,1.088,1.075,1.924,2.196,1.924h4.626c1.228,0,2.221-0.992,2.221-2.223V78.639
	c0-4.562-1.322-8.201-3.936-10.814C287.048,65.092,283.103,63.709,278.05,63.709z M284.712,86.285c0,0.895-0.185,1.672-0.559,2.381
	c-0.403,0.76-0.945,1.4-1.657,1.961c-0.735,0.578-1.614,1.035-2.609,1.359c-1.727,0.553-3.938,0.699-5.749,0.166
	c-0.703-0.211-1.332-0.512-1.853-0.885c-0.455-0.332-0.807-0.732-1.074-1.221c-0.245-0.461-0.365-0.979-0.365-1.699
	c0-1.184,0.454-2.039,1.469-2.773c1.206-0.863,3.042-1.307,5.463-1.307c1.794,0,3.389,0.133,4.743,0.387
	c0.778,0.148,1.513,0.301,2.191,0.459V86.285z"/>
<path fill="#FFFFFF" d="M331.341,51.234h-4.681c-1.229,0-2.224,0.996-2.224,2.221v13.354c-0.432-0.338-0.883-0.648-1.349-0.941
	c-1.142-0.709-2.424-1.283-3.822-1.703c-1.42-0.422-2.983-0.641-4.652-0.641c-2.194,0-4.344,0.438-6.397,1.299
	c-2.044,0.861-3.895,2.104-5.507,3.688c-1.619,1.604-2.929,3.572-3.895,5.867c-0.962,2.293-1.449,4.895-1.449,7.854
	c0,2.883,0.487,5.498,1.454,7.773c0.963,2.266,2.271,4.227,3.89,5.824c1.625,1.6,3.484,2.832,5.525,3.668
	c2.048,0.836,4.189,1.26,6.379,1.26c1.672,0,3.231-0.217,4.63-0.646c1.404-0.426,2.696-1.031,3.837-1.797
	c0.471-0.311,0.925-0.645,1.356-1v0.549c0,1.23,0.994,2.223,2.224,2.223h4.681c1.225,0,2.223-0.992,2.223-2.223V53.455
	C333.563,52.23,332.565,51.234,331.341,51.234z M307.342,86.41c-0.484-1.236-0.728-2.664-0.728-4.363
	c0-1.615,0.243-3.062,0.728-4.299c0.478-1.219,1.12-2.254,1.903-3.072c0.786-0.816,1.681-1.424,2.739-1.855
	c1.082-0.441,2.216-0.656,3.479-0.656c1.165,0,2.26,0.227,3.346,0.701c1.104,0.477,2.106,1.152,2.979,2.01
	c0.859,0.842,1.554,1.879,2.066,3.082c0.51,1.201,0.765,2.576,0.765,4.213c0,1.516-0.255,2.889-0.765,4.09
	c-0.515,1.209-1.217,2.266-2.082,3.131c-0.871,0.871-1.867,1.557-2.963,2.025c-2.213,0.961-4.637,0.916-6.736,0.025
	c-1.072-0.457-1.986-1.084-2.796-1.928C308.472,88.676,307.819,87.633,307.342,86.41z"/>
<path fill="#FFFFFF" d="M369.606,69.021c-1.655-1.676-3.64-3.023-5.898-4.006c-2.283-0.988-4.775-1.492-7.424-1.492
	c-2.687,0-5.204,0.504-7.485,1.492c-2.265,0.984-4.253,2.346-5.908,4.047c-1.657,1.703-2.961,3.699-3.871,5.941
	c-0.916,2.246-1.383,4.656-1.383,7.289c0,2.518,0.467,4.92,1.385,7.143c0.916,2.221,2.222,4.203,3.879,5.883
	c1.654,1.678,3.627,3.021,5.859,4.002c2.265,0.992,4.752,1.496,7.403,1.496c2.644,0,5.147-0.502,7.447-1.488
	c2.287-0.986,4.288-2.348,5.946-4.051c1.646-1.695,2.958-3.688,3.895-5.922c0.943-2.252,1.418-4.67,1.418-7.309
	c0-2.51-0.466-4.912-1.386-7.141C372.566,72.682,371.261,70.703,369.606,69.021z M356.284,92.176c-1.354,0-2.564-0.252-3.699-0.77
	c-1.168-0.535-2.146-1.229-2.989-2.121c-0.836-0.887-1.505-1.949-1.986-3.158c-0.48-1.209-0.726-2.543-0.726-4.08
	c0-1.381,0.238-2.699,0.703-3.918c0.468-1.213,1.11-2.279,1.915-3.164c0.796-0.879,1.744-1.561,2.899-2.092
	c1.12-0.512,2.388-0.771,3.762-0.771c1.349,0,2.562,0.252,3.698,0.771c1.15,0.531,2.17,1.256,3.021,2.15
	c0.854,0.906,1.533,1.98,2.015,3.191c0.48,1.213,0.727,2.543,0.727,4.078c0,1.379-0.238,2.68-0.701,3.879
	c-0.467,1.188-1.113,2.244-1.933,3.131c-0.81,0.871-1.8,1.58-2.944,2.104C358.925,91.918,357.66,92.176,356.284,92.176z"/>
<path fill="#FFFFFF" d="M398.686,63.646l-0.468-0.006c-1.566,0-3.065,0.221-4.456,0.652c-1.527,0.48-2.946,1.189-4.226,2.115
	c-0.533,0.387-1.044,0.803-1.528,1.252v-1.246c0-1.225-0.994-2.223-2.219-2.223h-4.686c-1.228,0-2.221,0.998-2.221,2.223v31.447
	c0,1.23,0.993,2.223,2.221,2.223h4.686c1.225,0,2.219-0.992,2.219-2.223V85.332c0-2.084,0.283-3.93,0.842-5.484
	c0.543-1.512,1.287-2.775,2.212-3.768c0.919-0.984,1.958-1.699,3.188-2.188c1.249-0.502,2.599-0.758,4.01-0.758h0.365
	c1.228,0,2.221-0.992,2.221-2.217v-5.051C400.845,64.666,399.887,63.68,398.686,63.646z"/>
<g>
</g>
<g>
</g>
<g>
</g>
<g>
</g>
<g>
</g>
<g>
</g>
<g>
</g>
<g>
</g>
<g>
</g>
<g>
</g>
<g>
</g>
<g>
</g>
<g>
</g>
<g>
</g>
<g>
</g>
</svg>
